<?xml version="1.0" encoding="utf-8"?>
<!-- Generator: Adobe Illustrator 27.5.0, SVG Export Plug-In . SVG Version: 6.00 Build 0)  -->
<svg version="1.1" xmlns="http://www.w3.org/2000/svg" xmlns:xlink="http://www.w3.org/1999/xlink" x="0px" y="0px"
	 viewBox="0 0 750 500" style="enable-background:new 0 0 750 500;" xml:space="preserve">
<g id="BACKGROUND">
</g>
<g id="OBJECTS">
	<g>
		<path style="fill:#7BA7A9;" d="M179.023,254.462c0-39.432,31.966-71.398,71.398-71.398s71.398,31.966,71.398,71.398"/>
		<path style="fill:#FFCA48;" d="M114.043,267.05c0-24.404,19.783-44.187,44.187-44.187c24.404,0,44.187,19.783,44.187,44.187"/>
		<path style="fill:#C95F40;" d="M493.276,267.05c0-31.373,25.433-56.806,56.806-56.806c31.373,0,56.806,25.433,56.806,56.806"/>
		<g>
			<path style="fill-rule:evenodd;clip-rule:evenodd;fill:#DF987B;" d="M352.993,107.821c-0.009-0.744,0.849-1.296,1.575-1.133
				c0.725,0.164,1.241,0.861,1.383,1.591c0.142,0.73-0.026,1.485-0.258,2.191c-0.272,0.825-0.672,1.666-1.408,2.127
				c-0.736,0.46-1.877,0.351-2.28-0.418L352.993,107.821z"/>
			<g>
				<path style="fill:#C95F40;" d="M609.62,116.527c-0.868-0.437-1.966-0.131-2.703,0.503c-0.737,0.634-1.183,1.535-1.569,2.427
					c-2.096,4.842-2.987,10.2-2.57,15.459c0.042,0.53,0.101,1.072,0.33,1.552c0.509,1.063,1.792,1.594,2.967,1.499
					c1.174-0.096,2.247-0.708,3.179-1.428c2.488-1.925,4.219-4.654,5.718-7.42c0.988-1.824,1.917-3.752,2.054-5.822
					c0.137-2.07-0.686-4.327-2.491-5.349"/>
				<path style="fill:#C95F40;" d="M173.383,316.308c13.569,13.308,23.838,24.534,29.726,32.732
					c3.296,4.329,3.984,8.109,1.93,11.284c-2.109,3.261-8.69,7.21-20.001,11.91c-11.745,4.878-20.473,7.386-25.85,7.386
					c-5.377,0-9.366-3.048-11.886-8.937l-19.572-42.933l-35.427,31.915c-3.385,3.049-6.057,5.322-7.968,6.771
					c-1.934,1.469-4.852,3.222-8.783,5.279c-7.161,3.785-17.514,5.721-30.894,5.721c-14.641,0-19.67-2.713-15.23-7.981
					c1.624-2.152,5.461-5.51,11.368-9.979l96.737-73.179c1.852-1.401,3.322-2.438,4.427-3.122c1.095-0.677,2.745-1.453,4.947-2.321
					c3.847-1.541,9.91-2.301,18.245-2.301c9.113,0,13.343,1.044,12.677,3.169c-0.445,0.996-1.825,2.541-4.185,4.667l-21.808,19.646
					c31.727-11.021,54.929-19.152,71.383-25.008c6.536-2.333,11.417-3.475,14.784-3.475c3.365,0,6.939,0.959,10.79,2.914
					c3.941,2.002,5.457,3.782,4.459,5.325c-1.017,1.572-4.329,3.476-10.032,5.73c-11.423,4.483-29.634,11.024-55.971,20.061
					L173.383,316.308z"/>
				<path style="fill:#ABD1AD;" d="M390.239,291.837c3.2,3.505,4.574,7.576,4.001,12.281c-0.604,4.957-3.24,9.667-8.04,14.077
					c-5.025,4.612-11.355,8.437-18.971,11.366c-16.138,6.32-32.542,9.622-48.489,9.622h-33.6l-11.471,19.303
					c-1.714,2.884-3.175,5.091-4.363,6.582c-1.202,1.513-3.221,3.276-6.072,5.304c-5.177,3.735-14.507,5.643-27.876,5.643
					c-14.628,0-21.128-2.608-19.555-7.67c0.607-2.26,2.736-5.637,6.3-10.044l58.314-72.108c1.119-1.384,2.047-2.408,2.795-3.084
					c0.741-0.669,1.985-1.435,3.733-2.293c3.041-1.522,8.707-2.273,17.042-2.273h41.8c11.458,0,22.051,1.791,32.115,5.492
					C383.047,285.888,387.159,288.468,390.239,291.837z M345.012,311.773c5.161-1.754,8.283-4.327,9.397-7.655
					c1.075-3.21-0.261-5.566-3.927-7.126c-3.607-1.532-7.608-2.29-12.046-2.29h-26.864l-11.744,19.763h30.094
					C334.7,314.465,339.752,313.56,345.012,311.773z"/>
				<path style="fill:#FFCA48;" d="M462.701,277.798c19.181,0,37.621,2.988,56.345,9.309c20.226,6.83,35.586,16.108,45.748,28.544
					c11.623,14.223,13.412,28.049,3.279,40.902c-11.354,14.402-33.611,22.271-65.715,22.271c-32.106,0-60.599-7.766-83.39-21.997
					c-20.372-12.717-29.301-26.204-28.458-39.975c0.416-6.794,3.043-12.75,7.699-17.984c4.403-4.947,9.981-8.89,16.735-11.944
					c6.518-2.947,13.899-5.193,22.196-6.789C445.275,278.57,453.756,277.798,462.701,277.798z M433.202,316.218
					c1.193,7.788,7.188,14.572,18.335,20.094c11.737,5.816,24.374,8.841,37.442,8.841c13.063,0,23.408-2.944,30.737-8.61
					c6.969-5.388,7.774-12.218,2.964-20.199c-4.452-7.386-12.113-12.928-22.871-16.896c-10.31-3.801-20.364-5.644-30.485-5.644
					c-10.123,0-18.744,1.859-26.101,5.697C435.54,303.507,432.095,308.997,433.202,316.218z"/>
				<path style="fill:#7BA7A9;" d="M675.034,291.949c9.59,3.535,18.384,7.64,26.387,12.385c8.432,4.999,14.381,9.749,17.619,14.196
					c3.382,4.651,4.023,8.508,1.747,11.462c-4.619,6.373-15.003,9.703-30.95,9.703h-33.6l23.715,19.466
					c3.543,2.908,6.104,5.134,7.635,6.638c1.555,1.526,2.75,3.304,3.595,5.348c1.632,3.767-4.222,5.69-17.59,5.69
					c-14.628,0-25.881-2.63-33.536-7.735c-3.512-2.279-7.539-5.684-12.008-10.129l-73.126-72.717
					c-1.404-1.396-2.343-2.428-2.827-3.11c-0.479-0.675-0.631-1.447-0.447-2.312c0.266-1.535,4.564-2.292,12.899-2.292h41.8
					c11.458,0,25.316,1.806,42.126,5.538C656.999,285.95,665.812,288.551,675.034,291.949z M666.146,312.053
					c1.964-1.769,0.395-4.364-4.556-7.719c-4.776-3.237-10.406-5.613-16.916-7.186c-6.4-1.545-11.781-2.309-16.22-2.309h-26.864
					l24.28,19.93h30.094C660.743,314.769,664.144,313.855,666.146,312.053z"/>
				<g>
					<path style="fill-rule:evenodd;clip-rule:evenodd;fill:#566274;" d="M242.234,281.089c0.041-0.001,0.082,0,0.123-0.001
						c2.714-0.047,5.423-0.391,8.063-1.023c-1.309-2.011-3.71-2.999-5.426-4.676c-2.965-2.898-5.206-6.97-7.342-10.485
						c0,0-1.531-0.194-3.014-0.382C234.733,270.827,237.617,276.901,242.234,281.089z"/>
					<path style="fill-rule:evenodd;clip-rule:evenodd;fill:#5D697A;" d="M234.638,264.523c-1.912-0.242-3.887-0.493-3.887-0.493
						c-1.181-0.149-2.6,11.218-2.59,12.61c3.455,0.542,6.818,1.665,9.904,3.308c0.676,0.36,1.348,0.748,2.087,0.948
						c0.675,0.183,1.382,0.201,2.082,0.192C237.617,276.901,234.733,270.827,234.638,264.523z"/>
					<path style="fill-rule:evenodd;clip-rule:evenodd;fill:#5D697A;" d="M168.304,269.446l-4.475,0.933
						c-5.38,3.308-10.76,6.616-16.141,9.924c6.816,2.252,14.418,1.958,21.083-0.685
						C167.659,276.423,167.428,272.808,168.304,269.446z"/>
					<path style="fill-rule:evenodd;clip-rule:evenodd;fill:#566274;" d="M173.203,276.358c-1.613-2.902-2.217-4.096-2.581-7.396
						l-2.318,0.483c-0.876,3.362-0.645,6.977,0.468,10.173c1.498-0.594,2.95-1.305,4.333-2.134
						C173.138,277.109,173.171,276.733,173.203,276.358z"/>
					<g>
						<path style="fill-rule:evenodd;clip-rule:evenodd;fill:#5D697A;" d="M238.313,265.246c-1.097,0.56-2.238,1.02-3.412,1.382
							c-1.876,0.581-3.829,0.921-5.781,0.987c2.293-15.885,0.307-28.885-5.419-43.365c-2.732-6.9-5.057-13.57-8.996-19.944
							c-0.823-1.316-9.917-12.034-9.917-12.901l0.011-0.033c-8.261,12.188-16.499,24.464-22.675,37.815
							c-6.165,13.362-10.213,27.963-9.588,42.664c-0.219,0.066-1.788,0.45-3.708,0.867c-3.423,0.757-7.964,1.613-7.833,0.922
							c4.959-25.835,11.025-51.451,18.178-76.77c2.03-7.186,4.136-14.36,6.341-21.502c5.88,1.338,11.76,2.688,17.64,3.73
							c6.538,1.163,13.077,1.953,19.615,1.931c0.11,0.647,0.241,1.294,0.406,1.942c0.428,1.624,1.064,3.181,1.689,4.739
							C234.957,212.556,243.064,238.073,238.313,265.246z"/>
						<path style="fill-rule:evenodd;clip-rule:evenodd;fill:#5D697A;" d="M288.36,99.957c-0.373,0.735-1.174,1.141-1.92,1.492
							c-11.727,5.606-18.408,9.336-29.499,16.126c-11.387,6.966-18.595,13.877-23.784,23.18c-2.896,5.167-5.156,11.069-7.174,18.123
							c-0.022,0.055-0.033,0.121-0.055,0.176c-0.845,2.973-1.459,5.869-1.81,8.776c-0.614,5.057-0.45,10.104,0.614,15.468
							c-5.452,0.34-10.63,1.481-16.192,0.933c-5.836-0.57-11.53-2.183-17.004-4.257c-4.794-1.821-8.667-2.359-5.781-7.635
							c1.349-2.479,2.293-5.046,3.148-7.657c0.538-1.602,1.042-3.225,1.58-4.86l0.011-0.022l0.417-1.229
							c1.788-5.189,3.642-9.742,4.629-15.26c0.538-2.973,0.516-6.22,0.889-9.292c0.483-3.938,1.602-7.559,5.354-9.884
							c13.428-8.304,29.082-10.082,43.859-15.161c16.181-5.573,27.393-9.632,42.214-18.2c0.176,1.799,0.351,3.587,0.527,5.386
							c0.055,0.581,0.11,1.174,0.165,1.755C288.612,98.608,288.667,99.332,288.36,99.957z"/>
						<path style="fill-rule:evenodd;clip-rule:evenodd;fill:#566274;" d="M288.36,99.957c-0.373,0.735-1.174,1.141-1.92,1.492
							c-11.727,5.606-18.408,9.336-29.499,16.126c-11.387,6.966-18.595,13.877-23.784,23.18c1.591-5.946,3.697-11.727,7.449-16.543
							c4.432-5.704,10.795-9.555,17.103-13.065c9.95-5.529,20.196-10.532,30.673-14.986c0.055,0.581,0.11,1.174,0.165,1.755
							C288.612,98.608,288.667,99.332,288.36,99.957z"/>
						<path style="fill-rule:evenodd;clip-rule:evenodd;fill:#566274;" d="M225.983,158.879c-0.022,0.055-0.033,0.121-0.055,0.176
							c-0.845,2.973-1.459,5.869-1.81,8.776c-6.363-0.461-12.736-0.921-19.099-1.371c-5.397-0.384-10.806-0.779-16.115-1.777
							c0.538-1.602,1.042-3.225,1.58-4.86l0.011-0.022C202.331,160.052,214.179,159.745,225.983,158.879z"/>
						<path style="fill-rule:evenodd;clip-rule:evenodd;fill:#566274;" d="M203.823,130.477c-1.349,9.04-2.699,18.079-4.059,27.108
							c-2.929,0.45-5.891,0.79-8.853,0.987c1.788-5.189,3.642-9.742,4.629-15.26c0.538-2.973,0.516-6.22,0.889-9.292
							c0.79-0.911,1.624-1.788,2.49-2.622L203.823,130.477z"/>
						<path style="fill-rule:evenodd;clip-rule:evenodd;fill:#E4A78E;" d="M286.163,94.937c0-0.823,7.679-15.084,9.051-15.358
							c1.371-0.274-1.92,8.869-1.92,8.869l-1.097,8.958h-6.034V94.937z"/>
						<path style="fill-rule:evenodd;clip-rule:evenodd;fill:#E4A78E;" d="M223.538,154.725c0.694-0.274,3.584,0,3.584,0
							l7.806-11.46c1.783-0.066-1.222,7.657-5.695,17.768h-5.695V154.725z"/>
						<path style="fill-rule:evenodd;clip-rule:evenodd;fill:#5D697A;" d="M227.619,153.801c-0.914,0.184-1.873,0.243-2.802,0.282
							c-5.834,0.245-11.682,0.173-17.508-0.218c-0.031-0.002-0.064-0.005-0.1-0.008c-1.965-0.192-11.231-2.485-12.266-0.38
							c3.291-6.693,6.583-13.387,9.874-20.08c0.852-1.733,1.725-3.561,1.635-5.49c-0.09-1.929-1.514-3.943-3.445-3.967
							c-1.011-0.013-1.948,0.5-2.809,1.031c-8.095,4.991-13.805,13.467-16.911,22.326c-1.202,3.428-3.366,9.207-2.765,12.893
							c0.758,4.64,7.43,4.674,11.147,4.574c11.638-0.315,23.257-1.305,34.782-2.957
							C225.979,159.137,226.531,156.469,227.619,153.801z"/>
						<path style="fill-rule:evenodd;clip-rule:evenodd;fill:#FFFFFF;" d="M227.615,114.135c-0.23,7.12-3.741,16.247-6.758,22.851
							c-2.326,5.101-4.355,8.689-4.355,8.689c-0.219-3.39-0.603-6.527-1.075-9.38c-1.843-11.179-5.002-17.86-5.002-17.86
							L227.615,114.135z"/>
						<path style="fill-rule:evenodd;clip-rule:evenodd;fill:#E4A78E;" d="M224.107,102.996c-0.922,8.502-2.073,15.194-2.073,15.194
							l-2.655,3.445l-0.351,0.45l-4.432-2.04v-7.997l-0.011,0.011c-0.176,0.077-2.238,1.042-3.598-0.011
							c-1.404-1.097-3.796-8.502-2.699-18.924c0,0,3.84-5.759,11.299-4.531C227.047,89.832,225.018,94.494,224.107,102.996z"/>
						<path style="fill-rule:evenodd;clip-rule:evenodd;fill:#C95F40;" d="M223.07,108.396c0.209-2.948,4.454-10.112,5.064-11.447
							c0.842-1.841,1.702-3.874,1.167-5.826c-0.817-2.983-4.371-4.196-7.445-4.531c-2.364-0.258-4.754-0.277-7.122-0.057
							c-6.08,0.565-12.938,5.012-9.038,12.028c0.574,1.033,1.248,0.913,2.083,1.75c-0.38-1.27-0.072-2.724,0.788-3.732
							c0.861-1.008,2.248-1.539,3.562-1.363c3.441,0.461,5.483,4.596,9.058,0.896c-0.343,2.784-0.687,5.568-1.03,8.351
							c0.009-1.811,1.493-3.5,3.288-3.743c0.804,1.82-0.141,4.208-1.972,4.986c-0.029,2.03,0.093,3.755,0.583,5.729
							c0.723-2.204,1.447-4.408,2.17-6.612"/>
						<path style="fill-rule:evenodd;clip-rule:evenodd;fill:#C95F40;" d="M220.857,136.986c-2.326,5.101-4.355,8.689-4.355,8.689
							c-0.219-3.39-0.603-6.527-1.075-9.38l2.995-11.121l-1.887-0.069l2.49-3.017l2.446,1.85
							C220.352,124.257,220.517,131.688,220.857,136.986z"/>
					</g>
				</g>
				<g>
					<path style="fill-rule:evenodd;clip-rule:evenodd;fill:#E4A78E;" d="M370.918,195.686c-1.081,3.459-1.48,7.128-1.169,10.739
						c0.293,0.149,0.545-0.26,0.623-0.58c0.507-2.085,1.015-4.169,1.522-6.253c0.922,4.214,0.191,8.593-0.542,12.843
						c1.546-0.33,2.333-2.029,2.798-3.54c1.526-4.953,2.107-10.194,1.703-15.361L370.918,195.686z"/>
					<g>
						<path style="fill-rule:evenodd;clip-rule:evenodd;fill:#C95F40;" d="M381.596,281.164c-0.757,0.143-1.514,0.285-2.271,0.417
							c-2.26,0.428-4.52,0.845-6.78,1.251c-3.565-16.872-9.95-33.141-18.715-47.995c-4.377-7.427-9.358-14.503-14.876-21.129
							c-0.998-1.185-11.541-12.802-11.541-13.68l0.011-0.033c-16.488,22.752-28.237,47.951-31.891,75.827
							c-0.132,0.998-0.296,2.008-0.57,2.973c-0.505,1.733-1.349,3.302-2.995,4.322c-0.68,0.417-6.505,1.459-6.33,0.56
							c4.948-25.835,11.014-51.451,18.167-76.77c3.51-12.418,7.219-24.804,11.321-37.047c1.909-5.715,3.993-10.553,5.057-16.51
							c0.143-0.812,0.274-1.634,0.373-2.468c0.351-2.666,0.472-5.386,0.241-8.052c-3.379-0.592-6.878-4.103-6.374-7.723
							c0.494-3.598,4.52-5.167,7.471-6.253c0.022-0.011,5.013-1.854,5.013-1.854c1.152-0.329,2.293-0.669,3.434-1.009
							c1.316-0.373,2.633-0.768,3.949-1.152h0.121l16.971-0.099c0.077-0.022,0.154-0.044,0.23-0.055
							c1.558-0.384,3.105-0.428,4.608-0.209c4.07,0.614,7.767,3.236,10.202,6.725c2.808,4.026,4.114,8.897,5.2,13.691
							c3.576,15.863,5.233,32.154,4.937,48.412c-0.011,0.636-0.033,1.305-0.373,1.843c-0.351,0.56-0.965,0.878-1.558,1.174
							c-1.887,0.932-3.774,1.865-5.661,2.797c1.744-17.399-1.119-35.226-8.228-51.198c0,0.252-1.887,2.786-3.653,5.156
							c-0.033,0.044-0.066,0.099-0.11,0.143c-1.371,1.843-2.655,3.565-2.896,4.015c-2.051,3.73-2.655,6.846-3.434,10.806
							c-1.415,7.186-7.295,14.174-5.858,21.809c1.218,6.472,6.648,14.283,9.369,20.427c6.791,15.304,13.581,30.596,20.361,45.9
							C378.064,264.16,381.673,272.443,381.596,281.164z"/>
						<path style="fill-rule:evenodd;clip-rule:evenodd;fill:#BE4D30;" d="M327.425,199.995
							c-16.488,22.752-28.237,47.951-31.891,75.827c-0.132,0.998-0.296,2.008-0.57,2.973l-3.741,0.592c0,0,1.229-7.822,4.52-26.329
							c3.291-18.507,25.517-56.771,25.517-56.771L327.425,199.995z"/>
					</g>
					<path style="fill-rule:evenodd;clip-rule:evenodd;fill:#F4EDDF;" d="M330.343,125.99c-0.954,2.666-1.646,5.43-2.052,8.228
						c-0.208,1.459-0.351,2.951-0.932,4.311c-0.57,1.349-1.525,2.49-2.337,3.719c-1.777,2.699-2.841,5.858-4.465,8.634
						c0.329-2.49,0.45-5.035,0.274-7.526c0-0.176-0.022-0.351-0.033-0.527c-3.127-0.549-6.352-3.587-6.418-6.922
						c-0.011-0.263,0.011-0.527,0.044-0.801c0.494-3.598,4.52-5.167,7.471-6.253c0.022-0.011,5.013-1.854,5.013-1.854
						C328.061,126.67,329.202,126.33,330.343,125.99z"/>
					<path style="fill-rule:evenodd;clip-rule:evenodd;fill:#E8D9BB;" d="M326.153,139.593c-0.823,1.667-2.348,2.962-4.125,3.51
						c-0.395,0.121-0.79,0.208-1.196,0.252c0-0.176-0.022-0.351-0.033-0.527c-3.127-0.549-6.352-3.587-6.418-6.922
						c0.559,1.097,1.547,1.997,2.721,2.37c-0.417-0.625-0.527-1.459-0.274-2.172C319.691,137.816,322.872,139.011,326.153,139.593z"
						/>
					<path style="fill-rule:evenodd;clip-rule:evenodd;fill:#F4EDDF;" d="M351.387,124.738c0.077-0.022,0.154-0.044,0.23-0.055
						c-1.656,4.344-2.852,8.864-3.565,13.461c-5.386-0.625-10.806-0.954-16.225-0.987c0.856-4.103,1.733-8.217,2.589-12.32
						L351.387,124.738z"/>
					<path style="fill-rule:evenodd;clip-rule:evenodd;fill:#F4EDDF;" d="M376.561,193.303c-0.011,0.636-0.033,1.305-0.373,1.843
						c-0.351,0.56-0.965,0.878-1.558,1.174c-1.075,0.527-2.139,1.064-3.214,1.591c-0.812,0.406-1.634,0.801-2.446,1.207
						c1.744-17.399-1.119-35.226-8.228-51.198c0,0.252-1.887,2.786-3.653,5.156c-0.066-0.088-0.143-0.175-0.208-0.263
						c-1.81-2.227-3.379-4.63-4.158-7.361c-0.198-0.68-0.34-1.382-0.439-2.084c-0.088-0.636-0.142-1.284-0.154-1.92
						c-0.088-3.412,0.757-6.9,1.777-10.202c0.702-2.282,1.47-4.542,2.315-6.769c4.07,0.614,7.767,3.236,10.202,6.725
						c2.808,4.026,4.114,8.897,5.2,13.691C375.201,160.755,376.857,177.045,376.561,193.303z"/>
					<g>
						<path style="fill-rule:evenodd;clip-rule:evenodd;fill:#E4A78E;" d="M330.985,135.63c0.41,0.587,0.894,1.169,1.234,1.751
							c0.3,0.514,0.612,1.081,0.52,1.669c-0.508,3.279-7.904,3.072-9.737,1.692c-1.606-1.209-1.49-4.763,0.122-5.949
							c0.959-0.705,2.995-0.64,4.116-0.448c0.004-0.357,0.283-0.666,0.611-0.808c0.328-0.142,0.697-0.147,1.054-0.133
							c0.475,0.019,1.019,0.109,1.266,0.515c0.149,0.246,0.152,0.555,0.274,0.814C330.587,135.034,330.777,135.332,330.985,135.63z"
							/>
						<path style="fill-rule:evenodd;clip-rule:evenodd;fill:#DA8765;" d="M327.347,135.118c0.038,0.618,0.58,1.164,1.198,1.206
							c0.617,0.042,1.229-0.425,1.35-1.032c0.474,0.397,0.308,1.151,0.1,1.734c-0.083,0.233-0.17,0.473-0.335,0.658
							c-0.173,0.193-0.415,0.307-0.65,0.416c-0.443,0.206-0.887,0.411-1.33,0.617c-0.188,0.087-0.39,0.189-0.474,0.378
							c-0.161,0.366,0.218,0.73,0.551,0.952c0.487,0.325,0.975,0.65,1.462,0.976c-1.668,0.126-3.359-0.069-4.954-0.571
							c-0.357-0.112-0.718-0.245-0.999-0.491c-0.281-0.246-0.469-0.631-0.386-0.995c0.487,0.078,0.973,0.155,1.46,0.233
							c0.386,0.062,0.846,0.099,1.104-0.195c0.108-0.123,0.175-0.301,0.331-0.354c0.25-0.086,0.495,0.222,0.754,0.173
							c0.272-0.051,0.353-0.443,0.616-0.529c0.176-0.058,0.4,0.035,0.537-0.09c0.075-0.068,0.092-0.178,0.097-0.279
							c0.019-0.382-0.071-0.769-0.258-1.103L327.347,135.118z"/>
					</g>
					<path style="fill-rule:evenodd;clip-rule:evenodd;fill:#DA8765;" d="M340.961,116.008c0.107,2.484-0.147,4.984-0.752,7.396
						c-0.07,0.279-0.152,0.57-0.349,0.779c-0.179,0.19-0.432,0.289-0.676,0.382c-0.594,0.227-1.187,0.454-1.781,0.681
						c1.819,1.825,3.637,3.65,5.455,5.475c2.606-1.972,5.444-3.636,8.437-4.948c-0.609-0.235-1.219-0.47-1.828-0.705
						c-0.139-0.054-0.287-0.115-0.367-0.24c-0.077-0.121-0.073-0.274-0.066-0.416c0.135-2.757,0.427-5.506,0.874-8.23
						L340.961,116.008z"/>
					<path style="fill-rule:evenodd;clip-rule:evenodd;fill:#DF987B;" d="M351.23,115.548c2.407-4.653,5.987-14.304-0.233-17.63
						c-3.474-1.857-9.227-2.073-12.141,0.823c-1.957,1.945-2.876,4.75-3.019,7.505c-0.252,4.864,2.982,14.635,9.229,14.425
						C347.869,120.577,349.941,118.04,351.23,115.548z"/>
					<path style="fill-rule:evenodd;clip-rule:evenodd;fill:#FFCA48;" d="M355.992,107.318c-1.876,0.461-3.829,0.483-5.748,0.669
						c-1.218,0.11-2.435,0.175-3.653,0.197c-2.282,0.033-4.553-0.11-6.813-0.428c-1.262-0.176-2.6-0.406-3.741-1.009
						c-0.362-0.187-2.49-1.975-2.83-1.733c0.505-0.362,0.91-0.691,1.24-0.998c1.141-1.064,1.426-1.942,2.15-3.851
						c0.746-2.019,1.306-4.333,2.732-6.001c0.998-1.163,2.304-2.03,3.741-2.512c0.658-0.23,1.349-0.373,2.04-0.428
						c1.097-0.088,2.205,0.044,3.291,0.208c0.351,0.055,0.702,0.11,1.042,0.198c0.625,0.132,1.24,0.318,1.81,0.625
						c1.371,0.735,2.326,2.095,2.874,3.543c0.559,1.459,0.768,3.017,0.965,4.564c0.285,2.194,0.57,4.399,0.856,6.593
						C355.959,107.077,355.981,107.198,355.992,107.318z"/>
					<path style="fill-rule:evenodd;clip-rule:evenodd;fill:#FFD775;" d="M355.992,107.318c-1.876,0.461-3.829,0.483-5.748,0.669
						c-1.218,0.11-2.435,0.175-3.653,0.197c-2.282,0.033-4.553-0.11-6.813-0.428c-1.262-0.176-2.6-0.406-3.741-1.009
						c-0.362-0.187-2.49-1.975-2.83-1.733c0.505-0.362,0.91-0.691,1.24-0.998c1.799,0.088,3.587,0.318,5.342,0.702
						c0.197-3.028,0.406-6.099,1.327-8.996c0.461-1.437,1.108-2.83,1.953-4.07c0.658-0.23,1.349-0.373,2.04-0.428
						c1.097-0.088,2.205,0.044,3.291,0.208c0.351,0.055,0.702,0.11,1.042,0.198c-0.735,0.757-1.196,1.854-1.525,2.885
						c-1.251,3.862-1.821,7.932-1.678,11.991c3.236-0.164,6.494-0.011,9.709,0.45C355.959,107.077,355.981,107.198,355.992,107.318z
						"/>
					<path style="fill-rule:evenodd;clip-rule:evenodd;fill:#5D697A;" d="M298.019,285.406c-5.226,1.062-12.979,1.246-18.058-0.588
						c2.559-1.263,4.732-3.297,6.162-5.766c0.45-0.776,0.833-1.602,1.42-2.28c2.47-2.851,6.403-1.291,8.409,1.257
						c1.412,1.794,2.135,4.023,2.734,6.226c0.076,0.28,0.144,0.603-0.025,0.839C298.519,285.293,298.258,285.358,298.019,285.406z"
						/>
					<path style="fill-rule:evenodd;clip-rule:evenodd;fill:#5D697A;" d="M371.25,277.8c-0.363,0.286-0.376,0.776-0.66,2.304
						c-0.326,1.754-0.58,3.524-0.87,5.285c-0.084,0.509-0.133,1.119,0.263,1.451c0.323,0.271,0.794,0.223,1.215,0.246
						c2.779,0.148,4.439,2.847,7.394,2.753c2.733-0.087,6.462-1.223,8.884-2.445c-2.222-2.361-4.063-5.078-5.432-8.017
						c-0.331-0.711-0.652-1.459-1.235-1.984c-1.663-1.499-5.815-1.002-7.813-0.269C372.017,277.482,371.53,277.58,371.25,277.8z"/>
				</g>
				<path style="fill:#5D697A;" d="M538.617,204.503c-0.091,0-0.183,0-0.274,0"/>
				<g>
					<path style="fill:#5D697A;" d="M656.476,290.944c-0.219,0.439-0.581,0.79-0.943,1.108c-6.736,6.067-11.036-2.106-11.025-8.272
						c0-1.24,0.066-2.479,0.11-3.73c0.022-0.625,0.033-1.251,0.033-1.876c-0.033-2.754-0.318-4.399,0.077-5.529
						c0.132-0.384,0.34-0.713,0.669-1.009c0.559-0.505,1.459-0.9,2.874-1.316c0.439-0.132,0.932-0.263,1.492-0.406
						c0.702,3.697,1.415,7.438,3.083,10.806c0.548,1.097,1.196,2.161,1.81,3.236c0.91,1.613,1.733,3.247,1.997,5.057
						C656.75,289.66,656.761,290.351,656.476,290.944z"/>
					<path style="fill:#E4A78E;" d="M653.668,283.701c0.441,0.775,0.832,1.585,1.071,2.499c-0.994-0.15-2.359-0.788-3.341-0.72
						c-0.325,0.023-3.3,1.147-3.032,1.535c-1.947-2.818-2.153-5.544-2.153-8.841c-0.022-2.754-0.217-4.399,0.052-5.529l2.422-2.326
						c0.3-0.132,0.637-0.263,1.02-0.406c0.401,3.092,0.808,6.19,1.619,9.207C651.79,280.848,652.82,282.209,653.668,283.701z"/>
					<g>
						<path style="fill:#C65534;" d="M592.184,113.969c-1.937,4.777-0.5,10.226-1.263,15.324c-0.861,5.76-4.456,10.701-8.125,15.224
							c-1.971,2.43-4.027,4.865-5.236,7.751c-1.209,2.886-1.453,6.366,0.174,9.039c2.388-3.818,7.778-3.95,11.89-5.784
							c4.522-2.017,7.599-6.247,10.378-10.346c2.888-4.259,5.729-8.659,7.153-13.604c1.424-4.945,1.26-10.583-1.583-14.872
							L592.184,113.969z"/>
						<path style="fill-rule:evenodd;clip-rule:evenodd;fill:#E4A78E;" d="M591.098,107.35c-2.99-0.295-5.929-1.098-8.653-2.365
							c-0.427-0.199-1.104-0.302-1.217,0.155c-0.078,0.317,0.234,0.582,0.508,0.759c1.182,0.764,2.364,1.527,3.546,2.291
							c-3.577-0.155-7.134-0.746-10.569-1.756c-0.079,0.596,0.566,1.008,1.121,1.241c2.411,1.014,4.953,1.717,7.542,2.085
							c-3.329-0.008-6.658-0.016-9.987-0.025c3.001,1.472,6.387,2.15,9.724,1.946c-3.086,0.17-6.161,0.526-9.204,1.064
							c3.306,1.138,6.964,1.233,10.325,0.267c-1.697,0.641-3.394,1.283-5.091,1.924c4.598,0.471,9.364-1.021,12.874-4.028
							L591.098,107.35z"/>
						<path style="fill-rule:evenodd;clip-rule:evenodd;fill:#E4A78E;" d="M544.788,139.641c-1.097,0-3.84-3.291-5.759-9.873
							s-1.646-3.017-1.371,4.662c0.274,7.679,0,8.776,0.823,8.776c0.823,0,6.856-0.274,6.856-0.274L544.788,139.641z"/>
						<g>
							<path style="fill:#5D697A;" d="M620.022,96.616c-2.282,0.241-4.465,1.097-6.615,1.953c-3.294,1.311-6.147,2.986-9.606,3.677
								c-4.625,0.924-9.191,2.017-13.685,3.458c-0.269,0.086-0.546,0.178-0.757,0.365c-0.266,0.236-0.392,0.589-0.483,0.933
								c-0.48,1.815-0.247,3.808,0.638,5.464c0.92,1.724,20.544-3.528,22.653-4.111c-0.006,0.033-0.012,0.066-0.018,0.099
								c2.249-4.138,4.955-8.048,7.901-11.838C620.041,96.616,620.031,96.615,620.022,96.616z"/>
							<path style="fill:#5D697A;" d="M650.489,276.217c-1.031,0.198-2.984,0.208-4.816,0.186c-1.393-0.011-2.721-0.044-3.521-0.044
								c-0.461-14.579-8.316-26.021-12.32-39.976c-1.02-3.565-1.635-7.339-3.51-10.477c-1.349-2.238-3.258-4.015-4.937-5.979
								c-3.982-4.651-6.67-10.312-9.555-15.742c-2.293-4.311-4.783-7.23-8.074-12.989c-2.073,4.531-4.377,9.478-5.968,14.316
								c-1.58,4.783-3.346,9.5-5.299,14.119c-1.667,3.96-3.51,8.063-3.313,12.407c0.077,1.777,0.516,3.532,0.647,5.31
								c0.175,2.424-0.208,4.849-0.603,7.229c-1.218,7.284-1.075,15.973-1.371,23.411c-1.108-0.186-2.797-0.647-4.52-1.097
								c-2.008-0.505-4.059-0.987-5.332-0.998c0.559-2.6,0.592-5.343,0.669-7.975c0.219-7.767-0.483-15.589,0.603-23.312
								c0.549-3.862,1.536-7.646,1.92-11.53c0.757-7.482,0.186-15.007,1.207-22.511c0.944-6.966,2.808-14.7,6.297-21.041
								c3.148,2.732,8.798,3.225,12.747,3.62c0.252,0.022,0.494,0.044,0.746,0.066c0.154,0.011,0.318,0.033,0.472,0.033
								c5.979,0.505,12.023,0.285,17.925-0.812c0.055,0.154,0.099,0.307,0.154,0.461c2.512,7.405,6.516,14.108,9.884,21.118
								c7.624,15.896,11.936,33.328,16.192,50.595C648.558,261.703,650.324,268.878,650.489,276.217z"/>
							<path style="fill:#566274;" d="M645.673,276.403c-1.393-0.011-2.721-0.044-3.521-0.044
								c-0.461-14.579-8.316-26.021-12.32-39.976c-1.02-3.565-1.635-7.339-3.51-10.477c-1.349-2.238-3.258-4.015-4.937-5.979
								c-3.982-4.651-6.67-10.312-9.555-15.742c-2.293-4.311-4.783-7.23-8.074-12.989c-2.073,4.531-4.377,9.478-5.968,14.316
								c-1.58,4.783-3.346,9.5-5.299,14.119c-1.667,3.96-3.51,8.063-3.313,12.407c0.077,1.777,0.516,3.532,0.647,5.31
								c0.175,2.424-0.208,4.849-0.603,7.229c-1.218,7.284-1.075,15.973-1.371,23.411c-1.108-0.186-2.797-0.647-4.52-1.097
								c0.823-7.712,3.39-15.369,3.104-23.147c-0.197-5.463-1.799-10.883-1.141-16.302c0.417-3.401,1.711-6.637,2.995-9.818
								c1.81-4.476,3.609-8.952,5.408-13.417c1.148-2.855,2.867-5.902,3.57-8.893c0.698-2.97-0.57-3.77-1.853-6.305
								c1.44-0.645,3.443-0.534,5.11-0.653c-1.589-0.396-3.008-1.436-3.864-2.832c4.382,1.78,9.282,2.263,13.928,1.373
								c-1.056,1.108-2.288,2.048-3.635,2.775c1.118,0.026,2.249,0.015,3.348,0.138c-0.664,0.584-1.333,1.185-2.194,1.514
								c3.578,3.552,6.252,8.745,9.175,12.951c2.227,3.203,4.454,6.407,6.999,9.358c2.359,2.743,5.002,5.288,6.889,8.381
								c3.62,5.902,4.081,13.12,5.375,19.922c2.183,11.464,6.933,22.324,9.018,33.821
								C645.607,275.975,645.64,276.184,645.673,276.403z"/>
							<path style="fill:#5D697A;" d="M627.342,186.447c-3.5,1.722-7.087,3.258-10.751,4.585c-3.214,1.185-6.472,2.205-9.786,3.072
								c-1.635-2.71-2.951-5.606-3.938-8.601c-0.768,3.675-1.536,7.35-2.304,11.025c-5.847,0.263-11.749-0.417-17.388-2.007
								c1.909-12.528,13.109-26.285,8.293-39.186c-1.02-2.732-2.337-5.408-2.6-8.348c-0.197-0.022-0.406-0.044-0.603-0.066
								c-8.074-0.9-15.918-0.263-24.003-1.251c-6.813-0.823-14.163-1.229-21.129-0.823c0.011-1.338,0-2.688,0.033-4.026
								c0.022-1.13,0.077-2.271,0.208-3.401c4.476,0.176,8.963,0.022,13.417-0.527c2.896-0.362,5.803-0.867,8.699-0.516
								c1.284,0.154,2.545,0.483,3.84,0.57c5.31,0.34,11.157-1.273,16.554-1.492c3.159-0.143,6.33-1.185,9.467-2.106
								c2.742-0.823,5.463-1.547,8.14-1.481c1.229,0.033,2.567,0.373,3.598-0.34c0.384-0.263,0.669-0.636,0.878-1.064
								c1.81,1.196,3.664,2.348,5.562,3.357c0,0.011,0,0.011,0,0.011c2.128,1.141,4.322,2.117,6.67,2.808
								c1.163,6.9,2.973,13.855,1.36,20.536c-2.008,8.283-1.635,16.357,2.106,23.663
								C624.654,182.772,625.872,184.637,627.342,186.447z"/>
							<path style="fill:#566274;" d="M588.266,146.921c-8.074-0.9-15.918-0.263-24.003-1.251
								c-6.813-0.823-14.163-1.229-21.129-0.823c0.011-1.338,0-2.688,0.033-4.026c3.532,0.241,7.076,1.02,10.608,1.448
								c5.452,0.658,10.981,0.494,16.466,0.34c5.847-0.175,11.694-0.34,17.531-0.516
								C587.827,143.707,587.991,145.33,588.266,146.921z"/>
							<path style="fill:#566274;" d="M620.512,163.406c0.187-2.057,0.541-4.135,1.048-6.228c1.613-6.681-0.197-13.636-1.36-20.536
								c-2.348-0.691-4.542-1.668-6.67-2.808c0.154,1.306,0.428,2.6,0.867,3.862c1.251,3.587,3.686,6.692,4.728,10.334
								c1.042,3.653,0.011,8.447-3.576,9.676c-2.084,0.713-4.355,0-6.516-0.417c-2.139-0.417-4.399-0.538-6.461,0.176
								c-2.062,0.702-3.883,2.38-4.311,4.509c2.951-1.251,6.385,1.02,7.811,3.895c1.426,2.874,1.514,6.198,2.15,9.336
								c1.185,5.902,4.355,11.278,8.337,15.797c0.011,0.011,0.022,0.022,0.033,0.033c1.454-0.527,2.892-1.095,4.321-1.686
								C617.137,181.728,617.378,171.76,620.512,163.406z"/>
							<path style="fill:#5D697A;" d="M562.168,282.709c-0.697,0.335-1.41,1.012-1.244,1.79c0.182,0.851,1.219,1.097,2.057,1.159
								c2.145,0.16,4.296,0.24,6.446,0.239c3.07-0.001,6.068-1.34,8.583-3.086c2.364-1.641,1.918-2.572,3.954-4.569
								c-0.052,3.31,1.102,5.09,1.539,8.369c0.628,0.065,1.265,0.029,1.883-0.105c-0.096-4.565,0.246-9.123-0.03-13.687
								c-0.035-0.586-0.078-1.171-0.117-1.756c-7.13,0.662-9.802,9.616-17.112,10.07
								C566.246,281.952,564.033,281.811,562.168,282.709z"/>
							<path style="fill:#E4A78E;" d="M585.157,266.965c-2.116-0.381-4.232-1.061-6.349-1.067c-0.167,0.804-0.386,1.593-0.677,2.359
								c-1.276,3.362-3.991,6.259-6.103,9.157c-0.986,1.353-2.022,2.751-3.474,3.529c-0.138,0.074-0.284,0.129-0.426,0.191
								c7.31-0.454,9.983-9.408,17.112-10.07c-0.053-0.795-0.099-1.59-0.11-2.386C585.122,268.109,585.134,267.538,585.157,266.965z
								"/>
						</g>
						<path style="fill-rule:evenodd;clip-rule:evenodd;fill:#F4EDDF;" d="M608.152,131.523c-0.296,1.635-0.878,3.203-1.47,4.761
							c-1.426,3.829-2.863,7.646-4.289,11.464c-2.293-4.816-4.64-9.61-7.043-14.393c2.742-0.823,5.463-1.547,8.14-1.481
							c1.229,0.033,2.567,0.373,3.598-0.34c0.395-0.274,0.691-0.658,0.9-1.097c0.022,0.022,0.044,0.044,0.066,0.077
							C608.251,130.799,608.207,131.172,608.152,131.523z"/>
						<path style="fill:#E4A78E;" d="M608.966,119.199c-0.066,0.483-0.143,0.965-0.252,1.437c-0.538,2.556-1.569,4.992-1.975,7.57
							c-0.483,3.105,0.68,5.057-1.909,7.394c-0.647,0.581-1.371,1.207-2.249,1.283c-0.537,0.044-1.075-0.132-1.58-0.34
							c-1.92-0.823-3.62-2.172-4.015-4.235c-0.23-1.174,0.45-2.567,0.088-3.324c-0.176-0.395-0.636-0.625-1.646-0.57
							c-5.617,0.318-4.169-14.02-2.699-16.993c2.139-4.333,7.372-6.012,11.508-3.993c2.326,1.141,4.202,3.39,4.783,6.056
							C609.416,115.349,609.197,117.301,608.966,119.199z"/>
						<path style="fill:#DA8765;" d="M606.74,128.206c-0.483,3.105,0.68,5.057-1.909,7.394c-0.647,0.581-1.371,1.207-2.249,1.283
							c-0.537,0.044-1.075-0.132-1.58-0.34c-1.92-0.823-3.62-2.172-4.015-4.235c-0.23-1.173,0.449-2.566,0.088-3.323
							c0.47,0.985,4.845-3.679,5.051-3.968c1.682-2.365,2.705-5.221,2.904-8.116c0.648,0.522,3.935,2.546,3.685,3.735
							C608.177,123.192,607.145,125.628,606.74,128.206z"/>
						<path style="fill:#C95F40;" d="M606.276,108.023c-3.719-2.871-11.759-4.614-14.116,0.996
							c-0.135,0.321-0.237,0.702-0.064,1.005c0.152,0.267,0.468,0.385,0.754,0.497c3.879,1.514,6.381,5.255,8.367,8.914
							c3.165,5.831,9.067,9.388,14.143,13.459c2.221,1.782,4.47,3.581,7.049,4.787c4.849,2.269,7.875,1.464,11.338-2.246
							c-1.751,0.142-3.512,0.142-5.263,0.002c3.251-0.671,6.055-3.182,7.079-6.34c-10.478-1.68-17.05-7.043-23.634-15.01
							C610.166,111.952,608.469,109.716,606.276,108.023z"/>
						<path style="fill:#5D697A;" d="M619.443,126.703c-0.208,3.28,0.197,6.593,0.757,9.939c-2.249-0.669-4.377-1.602-6.429-2.688
							c-1.986-1.042-3.916-2.249-5.803-3.489c0.011-0.011,0.011-0.022,0.022-0.033c0.318-0.647,0.483-1.426,0.614-2.161
							c1.174-6.604,2.37-13.219,3.543-19.823c2.249-4.136,4.958-8.041,7.899-11.837c0.845-0.077,1.81-0.022,2.326,0.68
							c0.263,0.362,0.351,0.823,0.439,1.273c0.022,0.121,0.044,0.252,0.055,0.373c0.998,5.54,0.45,10.246-0.757,15.797
							C621.297,118.486,619.443,122.819,619.443,126.703z"/>
					</g>
				</g>
				<g>
					<path style="fill:#FFA148;" d="M465.125,113.342c-5.504-1.997-8.957-1.168-11.968,3.978c-2.083,3.561-2.567,8.518,1.534,10.836
						c0.838,0.474,1.767,0.762,2.701,0.998c2.084,0.526,4.23,0.804,6.38,0.826c2.207,0.022,4.467-0.239,6.448-1.213
						c1.981-0.974,3.655-2.747,4.094-4.91c0.507-2.494-0.704-5.101-2.549-6.854C469.918,115.248,467.518,114.21,465.125,113.342z"/>
					<g>
						<path style="fill:#E4A78E;" d="M488.401,158.505c0.772,1.874,0.197,3.429,0.428,5.293c0.175,1.409,0.933,2.98,1.356,4.343
							c1.594,5.132,4.762,9.717,6.476,14.771c1.76,5.19-3.184,10.37-2.213,15.623c0.864-1.678,1.729-3.355,2.593-5.033
							c-0.585,3.105-0.43,6.346,0.447,9.381c3.543-3.217,5.505-8.101,5.172-12.875c-0.143-2.049-0.68-4.046-1.196-6.034
							c-3.143-12.117-5.02-24.29-7.983-36.374c-2.51,2.48-5.02,4.872-7.53,6.989C486.84,155.856,487.813,157.078,488.401,158.505z"
							/>
						<path style="fill:#E4A78E;" d="M444.928,124.037c-1.371,1.711-2.523,3.587-3.401,5.562c-0.614,1.338-1.097,2.732-1.426,4.158
							c-0.033-0.022-0.066-0.055-0.11-0.077c-6.823-4.706-13.658-9.412-20.492-14.119c-7.24-5.003-15.468-8.645-24.08-7.943
							c-2.479,0.208-4.991,0.768-7.515,1.766c-1.119,0.439-2.457,0.954-3.445,0.263c1.744-2.227,3.609-4.432,5.99-5.968
							c2.38-1.536,5.375-2.337,8.085-1.547c-0.779-0.57-1.591-1.174-2.128-1.975c-0.549-0.812-0.801-1.887-0.384-2.775
							c4.805,4.476,9.829,5.814,15.775,7.91c3.763,1.316,7.372,2.973,11.179,4.081c3.785,1.097,7.602,2.26,10.861,4.575
							c0.998,0.724,1.931,1.536,2.962,2.205c1.218,0.801,2.556,1.404,3.894,1.997C442.098,122.775,443.513,123.401,444.928,124.037z
							"/>
						<path style="fill:#F4EDDF;" d="M493.482,147.601c-1.415,1.393-2.83,2.765-4.234,4.07c-1.097,1.009-2.194,1.997-3.291,2.918
							c-0.11-0.154-0.23-0.307-0.34-0.472c-0.91-1.371-1.678-2.852-2.249-4.399c0.241,0.647-0.055,2.369-0.395,4.103
							c-0.318,1.58-0.669,3.181-0.713,4.004c-0.197,3.829-0.077,7.613,0.417,11.431c0.285,2.106,0.592,4.213,0.976,6.319
							c-8.842-1.92-17.695-2.26-26.537-2.326c0.176-1.591,0.23-3.192,0.077-4.805c-0.34-3.796-1.503-7.471-2.402-11.179
							c-0.867-3.554-1.481-7.164-1.843-10.795c-0.044-0.406-0.077-0.801-0.132-1.207c-0.11-0.702-0.274-1.382-0.636-1.997
							c-0.417-0.691-1.042-1.229-1.656-1.755c-3.39-2.874-6.791-5.255-10.422-7.756c0.296-1.284,0.724-2.545,1.251-3.763
							c0.9-2.117,2.117-4.125,3.576-5.957l1.251,0.559c0.998,0.439,1.986,0.878,2.984,1.327c6.549,2.907,11.464,4.004,18.551,2.951
							c1.229-0.186,2.49-0.351,3.774-0.472c5.046-0.483,10.389-0.274,14.711,2.293c5.013,2.984,5.573,10.115,6.878,15.205
							C493.219,146.471,493.34,147.042,493.482,147.601z"/>
						<path style="fill-rule:evenodd;clip-rule:evenodd;fill:#E8D9BB;" d="M456.534,141.754c-0.647,1.229-1.459,2.424-2.666,3.094
							c-0.329,0.187-0.691,0.318-1.053,0.417c-0.11-0.702-0.274-1.382-0.636-1.997c-0.417-0.691-1.042-1.229-1.656-1.755
							c-3.39-2.874-6.791-5.255-10.422-7.756c0.296-1.284,0.724-2.545,1.251-3.763c3.642,1.108,7.591,1.24,11.409,0.856
							c1.624-0.165,3.543-0.318,4.618,0.922c0.439,0.516,0.636,1.185,0.757,1.854C458.641,136.389,457.84,139.264,456.534,141.754z"
							/>
						<path style="fill:#E8D9BB;" d="M489.248,151.671c-1.097,1.009-2.194,1.997-3.291,2.918c-0.11-0.154-0.23-0.307-0.34-0.472
							c-0.91-1.371-1.678-2.852-2.249-4.399c0.241,0.647-0.055,2.369-0.395,4.103c-0.943-0.34-1.876-0.669-2.808-1.009
							c-0.505-0.187-1.02-0.373-1.404-0.735c-0.998-0.911-0.834-2.49-0.746-3.84c0.154-2.545-0.307-5.123-1.338-7.46
							c-0.318-0.735-0.867-1.558-1.678-1.514c-0.658,0.044-1.108,0.647-1.536,1.163c-1.909,2.293-4.882,3.478-7.844,3.818
							c-2.962,0.351-5.946-0.066-8.897-0.483c-0.581-0.088-1.229-0.208-1.558-0.691c-0.263-0.384-0.252-0.878-0.23-1.338
							c0.154-2.907,0.296-5.814,0.439-8.721c-2.721-0.296-5.529-1.163-7.35-3.203c-1.251-1.415-1.909-3.324-1.843-5.211
							c0.998,0.439,1.986,0.878,2.984,1.327c6.549,2.907,11.464,4.004,18.551,2.951c1.229-0.186,2.49-0.351,3.774-0.472
							c0.219,0.724,0.56,1.404,1.075,1.997c0.702,0.801,1.667,1.327,2.589,1.865c4.279,2.435,8.403,5.386,11.146,9.478
							C488.26,144.65,489.412,148.215,489.248,151.671z"/>
						<path style="fill:#ABD1AD;" d="M516.761,276.074l-5.2-0.23c-0.823-0.044-1.656-0.077-2.479-0.11
							c-1.799-6.889-3.642-13.866-7.219-20.021c-3.467-5.979-8.546-11.124-10.641-17.706c-2.348-7.317-3.105-14.568-7.251-21.26
							c-2.326-3.73-4.805-7.35-7.065-11.124c-0.395-0.669-2.984-4.224-5.057-7.186c-1.525-2.172-2.775-4.015-2.699-4.158
							c-1.678,3.181-3.357,6.363-5.035,9.544c-0.801,1.514-1.602,3.028-2.402,4.542c-2.742,5.189-5.485,10.4-7.471,15.918
							c-1.185,3.269-2.095,6.714-1.854,10.191c0.088,1.36,0.362,2.699,0.406,4.059c0.088,2.413-0.527,4.783-1.13,7.12
							c-2.765,10.751-5.54,21.502-8.316,32.242c-0.121,0.45-0.252,0.932-0.625,1.196c-0.351,0.263-0.823,0.263-1.262,0.252
							c-0.307-0.011-0.603-0.022-0.91-0.022c-1.338-0.044-2.688-0.088-4.026-0.121c2.545-16.828,3.774-33.821,6.209-50.661
							c1.536-10.674,3.565-21.326,6.692-31.66c2.315-7.668,6.791-15.501,7.69-23.63c8.842,0.066,17.695,0.406,26.537,2.326
							c0.395,2.183,0.878,4.344,1.481,6.483c1.262,4.388,3.927,8.305,5.375,12.594c1.558,4.64,3.609,9.072,5.014,13.8
							c3.785,12.66,8.853,24.343,13.57,36.531c3.291,8.502,6.209,17.728,7.197,26.779
							C516.454,273.2,516.608,274.637,516.761,276.074z"/>
						<path style="fill:#95C598;" d="M464.115,203.824c-0.801,1.514-1.602,3.028-2.402,4.542c-2.742,5.189-5.485,10.4-7.471,15.918
							c-1.185,3.269-2.095,6.714-1.854,10.191c0.088,1.36,0.362,2.699,0.406,4.059c0.088,2.413-0.527,4.783-1.13,7.12
							c-2.765,10.751-5.54,21.502-8.316,32.242c-0.121,0.45-0.252,0.932-0.625,1.196c-0.351,0.263-0.823,0.263-1.262,0.252
							c-0.307-0.011-0.603-0.022-0.91-0.022c0.68-13.45,10.477-26.011,8.787-39.482c-0.252-2.051-0.779-4.081-0.779-6.154
							c0.011-3.225,1.294-6.297,2.37-9.347c2.238-6.374,3.62-13.055,4.092-19.801c0.263-3.763,0.274-7.69,1.964-11.069
							C460.539,195.848,462.689,199.743,464.115,203.824z"/>
						<path style="fill:#95C598;" d="M511.561,275.844c-0.823-0.044-1.656-0.077-2.479-0.11c-1.799-6.889-3.642-13.866-7.219-20.021
							c-3.467-5.979-8.546-11.124-10.641-17.706c-2.348-7.317-3.105-14.568-7.251-21.26c-2.326-3.73-4.805-7.35-7.065-11.124
							c-0.395-0.669-2.984-4.224-5.057-7.186c0.516-2.271,1.152-4.498,1.931-6.692c0.187-0.538-0.022-0.735,0.406-0.373
							c-0.066-0.614,0.987-0.263,1.273,0.296c1.492,3.006,1.942,6.44,3.357,9.489c0.965,2.084,2.348,3.938,3.653,5.825
							c5.353,7.833,9.259,16.664,11.453,25.89c0.483,2.04,0.9,4.125,1.92,5.946c0.735,1.305,1.755,2.424,2.732,3.576
							c4.465,5.266,7.932,11.365,10.257,17.86C509.729,262.778,512.187,270.754,511.561,275.844z"/>
					</g>
					<path style="fill:#DA8765;" d="M459.604,119.507c0.195,3.091,0.391,6.182,0.586,9.274c0.031,0.497,0.038,1.063-0.321,1.409
						c-0.257,0.247-0.7,0.402-0.693,0.758c0.003,0.185,0.139,0.336,0.267,0.469c1.315,1.371,2.771,2.817,4.648,3.109
						c1.554,0.242,3.111-0.363,4.508-1.085c1.328-0.686,2.649-1.543,3.378-2.847c-1.707-0.141-3.278-1.359-3.838-2.978
						c-0.712-2.058,0.136-4.425-0.638-6.461L459.604,119.507z"/>
					<path style="fill:#5D697A;" d="M494.93,233.97c-10.477,2.381-21.447,2.512-31.967,0.373c-0.636-0.132-1.306-0.285-1.722-0.779
						c-0.318-0.373-0.428-0.889-0.527-1.371c-0.867-4.279-1.744-8.568-2.611-12.846c-1.547-7.602-3.094-15.271-2.995-23.027
						c0.121-8.601,2.271-17.212,1.448-25.703c-0.066-0.834-0.165-1.657-0.307-2.49c-0.406-2.435-1.097-4.816-1.7-7.218
						c-0.077-0.296-0.154-0.592-0.23-0.9c-0.998-3.73-2.402-7.701-3.072-11.387c-0.757-4.202,2.282-8.93,4.213-12.462
						c0.889-1.613,2.918-7.58,5.035-7.504c-2.008,4.224-4.059,8.886-2.918,13.417c1.898,0.505,3.829,1.02,5.781,0.878
						c0.965-0.066,1.909-0.285,2.841-0.505c2.139-0.505,4.268-0.998,6.396-1.503c0.889-2.205,1.24-4.794,0.428-7.043
						c-0.9-2.501-3.138-4.333-3.894-6.9c0.033,0.088,1.108-0.066,1.207-0.033c0.669,0.241,0.603,0.998,1.053,1.514
						c0.713,0.812,1.273,1.646,1.898,2.501c1.635,2.238,3.598,4.147,5.332,6.308c4.136,5.134,5.748,10.762,4.608,17.081
						c-1.196,6.571-0.219,13.318,0.823,19.911C487.174,194.258,490.805,214.169,494.93,233.97z"/>
					<path style="fill:#5D697A;" d="M444.292,274.95c0.288,2.041,0.576,4.082,0.864,6.123c0.099,0.699,0.197,1.415,0.052,2.107
						c-0.243,1.158-1.126,2.074-1.551,3.178c-0.65,1.688-0.274,3.867-1.613,5.083c-0.85,0.772-2.104,0.85-3.252,0.875
						c-2.89,0.063-6.052-0.05-8.248-1.93c-0.182-0.156-0.359-0.328-0.459-0.546c-0.269-0.588,0.119-1.285,0.628-1.684
						c0.509-0.399,1.137-0.627,1.628-1.048c3.141-2.695,2.847-8.606,3.724-12.308C438.814,274.089,441.391,275.86,444.292,274.95z"
						/>
					<path style="fill:#5D697A;" d="M509.142,273.859c-0.286,2.041-0.572,4.082-0.859,6.123c-0.098,0.699-0.196,1.416-0.05,2.107
						c0.244,1.158,1.128,2.073,1.554,3.177c0.651,1.688,0.277,3.867,1.618,5.081c0.851,0.771,2.105,0.848,3.253,0.872
						c2.89,0.061,6.052-0.055,8.247-1.937c0.182-0.156,0.359-0.328,0.458-0.546c0.269-0.588-0.12-1.285-0.629-1.683
						c-0.509-0.398-1.138-0.626-1.629-1.047c-3.143-2.693-2.855-8.603-3.735-12.305
						C514.619,272.993,512.044,274.767,509.142,273.859z"/>
					<path style="fill:#E4A78E;" d="M470.75,110.846c1.08,5.167,0.023,8.135-2.694,12.538c-0.392,0.635-0.82,1.288-1.47,1.654
						c-0.807,0.454-1.803,0.381-2.709,0.194c-6.725-1.391-14.659-11.491-13.018-18.565c0.555-2.395,2.3-4.448,4.505-5.536
						c2.204-1.088,4.821-1.24,7.189-0.579C466.958,101.781,469.759,106.106,470.75,110.846z"/>
					<path style="fill:#FFCA48;" d="M475.436,126.604c-0.538,0.954-1.536,1.547-2.49,2.073c-1.448,0.801-2.907,1.58-4.388,2.326
						c2.721-2.841,2.83-7.438,2.512-11.365c-0.176-2.205-0.483-4.421-1.273-6.483c-1.185-3.083-3.368-5.65-5.507-8.151l-1.262-1.448
						c0.362,2.392-0.164,4.915-1.459,6.955c0.614-1.514,0.197-3.39-0.998-4.487c-0.636,2.139-1.591,4.202-2.841,6.067
						c-0.34-1.986-0.691-3.96-1.042-5.935c-2.721,4.717-2.556,12.144-0.889,17.19c0.219,0.658,0.505,1.327,0.856,1.953
						c0.856,1.481,2.106,2.688,3.763,2.775c-3.061,1.525-6.813,2.04-9.873,0.516c-6.451-3.214-2.907-11.727-2.326-17.18
						c0.285-2.633,0.581-5.342,1.81-7.701c1.525-2.918,4.564-4.871,7.811-5.419c0.033-0.011,0.077-0.022,0.121-0.022
						c0.724-0.11,1.459-0.153,2.194-0.132c1.36,0.055,2.699,0.373,3.938,0.987c2.721,1.338,4.728,3.774,6.33,6.341
						c3.412,5.463,5.332,11.859,5.485,18.309C475.93,124.739,475.897,125.748,475.436,126.604z"/>
				</g>
			</g>
			<path style="fill-rule:evenodd;clip-rule:evenodd;fill:#BE4D30;" d="M381.596,281.164c-0.757,0.143-1.514,0.285-2.271,0.417
				c-1.272-6.001-2.655-12.013-4.651-17.816c-1.635-4.728-3.664-9.314-5.683-13.888c-2.512-5.661-5.013-11.321-7.515-16.982
				c-3.039-6.846-5.595-14.492-9.489-20.909c-1.273-2.106-3.313-3.609-4.761-5.617c-2.161-3.006-4.311-6.023-6.571-8.952
				c-1.711-2.227-3.489-4.454-4.531-7.054c-1.053-2.611-1.283-5.694,0.077-8.14c0.614-1.119,1.536-2.04,2.359-3.017
				c2.786-3.258,4.75-7.208,5.661-11.387c0.56-2.545,0.735-5.167,1.152-7.745c1.064-6.549,3.686-12.725,6.758-18.628
				c0.033,1.349,0.219,2.699,0.592,4.004c0.779,2.732,2.348,5.134,4.158,7.361l0.099,0.406c-1.371,1.843-2.655,3.565-2.896,4.015
				c-2.051,3.73-2.655,6.846-3.434,10.806c-1.415,7.186-7.295,14.174-5.858,21.809c1.218,6.472,6.648,14.283,9.369,20.427
				c6.791,15.304,13.581,30.596,20.361,45.9C378.064,264.16,381.673,272.443,381.596,281.164z"/>
			<path style="fill-rule:evenodd;clip-rule:evenodd;fill:#E8D9BB;" d="M371.416,197.911c-0.812,0.406-1.634,0.801-2.446,1.207
				c1.744-17.399-1.119-35.226-8.228-51.198c0,0.252-1.887,2.786-3.653,5.156c-0.066-0.088-0.143-0.175-0.208-0.263
				c-1.81-2.227-3.379-4.63-4.158-7.361c-0.198-0.68-0.34-1.382-0.439-2.084c2.172-2.457,4.454-4.827,6.824-7.098
				c0.746,1.086,1.152,2.359,1.558,3.62c3.971,12.331,7.964,24.738,9.764,37.562C371.383,184.22,371.712,191.076,371.416,197.911z"
				/>
			<path style="fill-rule:evenodd;clip-rule:evenodd;fill:#FFFFFF;" d="M339.137,124.053c-0.731,0.215-1.296-0.775-2.056-0.841
				c-0.692-0.059-1.194,0.664-1.368,1.336c-0.858,3.305,2.302,6.433,2.202,9.846c1.436-1.49,3.113-2.747,4.945-3.708
				L339.137,124.053z"/>
			<path style="fill-rule:evenodd;clip-rule:evenodd;fill:#FFFFFF;" d="M342.976,130.143c1.135,1.023,2.1,2.234,2.845,3.568
				c0.459-0.807,1.207-1.4,1.882-2.038c1.775-1.677,3.136-3.79,3.927-6.1c0.094-0.275,0.182-0.566,0.133-0.853
				c-0.134-0.789-1.121-1.047-1.916-1.135c-0.66,0.995-1.416,1.926-2.254,2.778L342.976,130.143z"/>
			<path style="fill-rule:evenodd;clip-rule:evenodd;fill:#DF987B;" d="M337.192,107.821c0.009-0.744-0.849-1.296-1.575-1.133
				c-0.725,0.164-1.241,0.861-1.382,1.591c-0.142,0.73,0.025,1.485,0.258,2.191c0.272,0.825,0.672,1.666,1.408,2.127
				c0.736,0.46,1.877,0.351,2.281-0.418L337.192,107.821z"/>
			<path style="fill-rule:evenodd;clip-rule:evenodd;fill:#566274;" d="M182.124,229.187c-6.165,13.362-10.213,27.963-9.588,42.664
				c-0.219,0.066-1.788,0.45-3.708,0.867c1.02-7.087,5.65-38.231,10.499-50.101c5.485-13.439,21.666-36.476,21.666-36.476
				l3.807,5.233C196.539,203.561,188.3,215.836,182.124,229.187z"/>
			<path style="fill-rule:evenodd;clip-rule:evenodd;fill:#566274;" d="M238.313,265.246c-1.097,0.56-2.238,1.02-3.412,1.382
				c0.395-15.205,0.011-30.563-4.147-45.165c-0.954-3.368-2.106-6.67-3.258-9.961c-1.931-5.54-3.861-11.069-5.792-16.609
				c-0.801-2.315-1.678-4.728-3.51-6.341c-1.316-1.163-2.995-1.799-4.597-2.523c-3.818-1.722-7.372-4.07-10.444-6.933
				c6.538,1.163,13.077,1.953,19.615,1.931c0.11,0.647,0.241,1.294,0.406,1.942c0.428,1.624,1.064,3.181,1.689,4.739
				C234.957,212.556,243.064,238.073,238.313,265.246z"/>
			<path style="fill-rule:evenodd;clip-rule:evenodd;fill:#DA8765;" d="M219.379,121.635l-0.351,0.45l-4.432-2.04v-7.997
				l3.851-0.614C218.446,111.432,219.346,118.19,219.379,121.635z"/>
			<path style="fill:#566274;" d="M477.619,158.977c-2.183,1.349-4.75,1.876-7.164,2.743c-2.414,0.878-4.849,2.271-5.913,4.596
				c-0.713,1.536-0.724,3.291-0.735,4.98c-0.011,5.814-0.033,11.618-0.055,17.432c-0.011,3.346-0.143,7.021-2.359,9.533
				c-2.644-7.723-2.37-16.126-3.982-24.135c-0.241-1.185-0.527-2.359-0.856-3.51c-0.066-0.834-0.165-1.657-0.307-2.49
				c-0.406-2.435-1.097-4.816-1.7-7.218c-0.077-0.296-0.154-0.592-0.23-0.9c1.218,0.943,2.896,1.272,4.432,1.042
				c1.909-0.274,3.642-1.273,5.189-2.424c1.218-0.91,2.413-1.964,3.895-2.304c1.152-0.263,2.37-0.066,3.532,0.219
				C473.538,157.079,475.656,157.902,477.619,158.977z"/>
			<path style="fill:#FFA148;" d="M460.418,128.074c-3.061,1.525-6.813,2.04-9.873,0.516c-6.451-3.214-2.907-11.727-2.326-17.18
				c0.285-2.633,0.581-5.342,1.81-7.701c1.525-2.918,4.564-4.871,7.811-5.419h0.077c-2.732,0.922-5.09,3.28-6.231,6.001
				c-1.678,4.004-1.305,8.546-0.57,12.824c0.472,2.798,1.13,5.65,2.776,7.965c-0.077-1.525-0.143-3.039-0.219-4.564
				c0.362,1.887,1.514,3.521,2.984,4.783C457.511,126.78,458.761,127.986,460.418,128.074z"/>
			<path style="fill-rule:evenodd;clip-rule:evenodd;fill:#DA8765;" d="M441.527,129.599c-0.614,1.338-1.097,2.732-1.426,4.158
				c-0.033-0.022-0.066-0.055-0.11-0.077c-6.823-4.706-13.658-9.412-20.492-14.119c-7.24-5.003-15.468-8.645-24.08-7.943
				c2.161-0.68,4.366-1.141,6.626-1.053c1.799,0.077,3.576,0.483,5.31,0.976c3.565,1.009,7.032,2.369,10.334,4.037
				c2.446,1.229,4.805,2.644,7.153,4.048C430.403,122.951,435.965,126.275,441.527,129.599z"/>
			<path style="fill:#566274;" d="M619.443,126.703c-0.208,3.28,0.197,6.593,0.757,9.939c-2.249-0.669-4.377-1.602-6.429-2.688
				c1.777-11.958,4.838-23.718,9.094-35.017c0.998,5.54,0.45,10.246-0.757,15.797C621.297,118.486,619.443,122.819,619.443,126.703z
				"/>
		</g>
	</g>
</g>
</svg>
